<?xml version="1.0" standalone="no"?>
<!DOCTYPE svg PUBLIC "-//W3C//DTD SVG 20010904//EN"
 "http://www.w3.org/TR/2001/REC-SVG-20010904/DTD/svg10.dtd">
<svg version="1.0" xmlns="http://www.w3.org/2000/svg"
 width="95.000000pt" height="95.000000pt" viewBox="0 0 95.000000 95.000000"
 preserveAspectRatio="xMidYMid meet">
<metadata>
Created by potrace 1.16, written by Peter Selinger 2001-2019
</metadata>
<g transform="translate(0.000000,95.000000) scale(0.100000,-0.100000)"
fill="#000000" stroke="none">
<path d="M311 810 c-172 -114 -157 -94 -227 -311 -51 -160 -52 -188 -11 -250
28 -44 101 -82 143 -75 17 2 104 52 194 111 235 154 237 155 265 155 52 0 99
-77 77 -125 -6 -13 -74 -65 -154 -118 l-143 -95 -20 22 c-11 12 -27 32 -35 45
-13 20 -17 21 -28 9 -9 -11 -6 -22 13 -50 18 -27 23 -45 19 -65 -4 -20 -1 -33
10 -42 18 -15 20 -14 237 130 103 69 149 105 157 126 21 49 64 306 59 346 -11
82 -110 169 -174 152 -65 -16 -79 -36 -113 -174 -18 -72 -37 -137 -44 -145
-23 -29 -320 -216 -343 -216 -37 0 -83 51 -83 92 0 19 6 41 13 50 9 12 224
156 284 192 8 4 26 -13 49 -49 34 -51 53 -63 61 -39 2 5 -16 39 -38 74 l-42
64 28 105 c15 58 30 123 32 144 4 32 2 37 -15 37 -11 0 -88 -45 -171 -100z"/>
</g>
</svg>
